<?xml version="1.0" encoding="UTF-8"?>
<svg id="Calque_1" xmlns="http://www.w3.org/2000/svg" version="1.1" viewBox="0 0 24 24">
  <!-- Generator: Adobe Illustrator 29.6.0, SVG Export Plug-In . SVG Version: 2.1.1 Build 207)  -->
  <defs>
    <style>
      .st0 {
        fill: #9ca3af;
      }
    </style>
  </defs>
  <path class="st0" d="M0,21.25c.59-2.19,3.12-.63,4.55-1.19.35-.14.49-.56.61-.89.14-.38.25-.79.36-1.19.74-2.65,1.3-5.36,1.98-8.03h-2.53l.56-2.23,2.58-.02c.49-2.19,1.4-4.4,3.34-5.69,1.18-.8,3.48-1.68,4.73-.66.8.64.76,1.91-.16,2.43s-1.9-.04-2.82-.1c-.49-.03-.65.17-.91.55-.66.99-.8,2.36-1.14,3.48,1.78-.02,3.55-.07,5.32-.09.25,0,.51-.07.8-.05.96.09,1.25.88,1.43,1.71.06.14.12-.06.14-.09.93-.97,2.25-2.39,3.73-2.27,1.59.12,1.88,2.32.34,2.78-.66.2-1.41.04-1.99.44-.31.22-1.59,1.64-1.6,1.96.39,1.32.41,2.98,1.13,4.16.09.15.6.88.79.76.25-.53.38-1,.97-1.24.85-.35,1.56.16,1.8.98v.47c-.22,1.13-1.54,2.04-2.66,2.04-2.11.02-3.19-1.65-3.96-3.37-.04-.07-.25-.74-.32-.69-.91,1.43-2.82,3.71-4.74,2.79s-.51-3.82,1.28-2.59c.13.09.25.33.41.25.07-.03.56-.59.66-.71.64-.74,1.13-1.59,1.7-2.38.06-.09.04-.18.03-.28-.09-.72-.43-1.5-.51-2.24l-5.26-.1c-.6,2.11-1,4.28-1.59,6.39-.69,2.46-1.8,4.76-4.13,6.05-1.44.8-4.23,1.43-4.91-.62v-.51h0Z"/>
</svg>