<?xml version="1.0" encoding="UTF-8"?>
<svg id="Layer_2" data-name="Layer 2" xmlns="http://www.w3.org/2000/svg" viewBox="0 0 587.97 149.14">
  <defs>
    <style>
      .cls-1 {
        fill: #000;
      }

      .cls-1, .cls-2 {
        stroke-width: 0px;
      }

      .cls-2 {
        fill: #00e6c3;
      }
    </style>
  </defs>
  <g id="Layer_1-2" data-name="Layer 1">
    <g>
      <path class="cls-2" d="M69.79,50.99c-2.91-2.7-4.4-6.12-4.4-10.1v-7.42c0-4,1.51-7.44,4.46-10.15l1.6-1.76c2.54-2.31,5.65-3.49,9.18-3.49h7.42c4,0,7.44,1.51,10.15,4.46,2.44,2.66,5.95,4.32,9.85,4.32,7.39,0,13.38-5.99,13.38-13.37S115.43.1,108.05.1c-3.9,0-7.4,1.67-9.85,4.32-2.71,2.94-6.15,4.46-10.15,4.46h-7.42c-3.54,0-6.64-1.18-9.19-3.5-1.69-2.22-4.05-3.89-6.78-4.72h0s-7.64-2.75-13.33,3.2c0,.01-.02.02-.03.03-.08.08-.17.16-.25.25-3.66,3.66-7.8,4.52-10.26,4.68v-.04h-2.17s0,0,0,0h-5.25c-4,0-7.44-1.51-10.15-4.46C20.78,1.67,17.27,0,13.37,0,5.99,0,0,5.99,0,13.37c0,7.39,5.99,13.38,13.37,13.38,3.9,0,7.4-1.67,9.85-4.32.22-.24.46-.48.69-.7l.96-.84c2.41-1.93,5.27-2.91,8.5-2.91h6.14c4.84.19,6.19,1.04,6.19,1.04,8.55,4.19,10.09,10.84,10.32,13.93,0,.18,0,.35,0,.53v7.42c0,7.56-7.6,15.4-15.24,15.4h-7.42c-4,0-7.44-1.51-10.15-4.46-2.44-2.66-5.95-4.32-9.85-4.32C5.99,47.51,0,53.5,0,60.89c0,7.39,5.99,13.38,13.37,13.38,3.9,0,7.4-1.67,9.85-4.32,2.71-2.94,6.15-4.46,10.15-4.46h7.42c7.61,0,15.24,7.85,15.24,15.4v7.42c0,7.66-7.5,15.4-15.24,15.4h-7.42c-4,0-7.44-1.51-10.15-4.46-2.44-2.66-5.95-4.32-9.85-4.32C5.99,94.93,0,100.92,0,108.31,0,115.69,5.99,121.68,13.37,121.68c3.9,0,7.4-1.67,9.85-4.32,2.71-2.94,6.15-4.46,10.15-4.46h7.42c3.54,0,6.64,1.18,9.18,3.49,2.44,3.21,6.31,5.29,10.65,5.29h.09s.08,0,.08,0c7.39,0,13.37-5.99,13.37-13.37,0-3.9-1.67-7.4-4.32-9.85-2.94-2.71-4.46-6.15-4.46-10.15v-7.42c0-3.99,1.5-7.42,4.42-10.12l.03-.03h.01s.04-.05.04-.05l.04-.04.03-.03h.01s.04-.05.04-.05l.04-.04.02-.02.02-.02.04-.04.04-.04.02-.02.02-.02.04-.04.04-.04.02-.02.02-.02.04-.04.04-.04.02-.02.02-.02.04-.04.04-.04v-.02s.04-.03.04-.03l.04-.04.04-.04h.01s.03-.04.03-.04l.04-.04.04-.04h0s.03-.04.03-.04l.04-.04.04-.04h0s.03-.04.03-.04l.04-.04h0s.07-.09.07-.09h0s.04-.05.04-.05l.04-.04h0s.03-.05.03-.05l.04-.04.04-.04h0s.04-.05.04-.05l.04-.05.07-.09.03-.05.03-.04h0s0,0,0,0c2.54-2.31,5.65-3.49,9.18-3.49h7.42c4,0,7.44,1.51,10.15,4.46,2.44,2.66,5.95,4.32,9.85,4.32,7.39,0,13.38-5.99,13.38-13.38s-5.99-13.37-13.38-13.37c-3.9,0-7.4,1.67-9.85,4.32-2.71,2.94-6.15,4.46-10.15,4.46h-7.42c-3.54,0-6.64-1.18-9.18-3.49,0,0-1.37-1.48-1.66-1.81Z"/>
      <g>
        <path class="cls-1" d="M164.76,95.65c0,9.01,4.94,14.5,13.29,14.5,5.27,0,9.56-2.42,12.74-7.25l13.84,2.31c-4.61,11.09-13.4,16.58-26.36,16.58-17.57,0-28.89-11.31-28.89-28.45s10.54-28.78,28.12-28.78,27.57,11.31,27.57,29.11v1.98h-40.31ZM190.79,86.1c-1.76-7.14-6.04-10.76-12.85-10.76s-11.31,3.84-12.52,10.76h25.37Z"/>
        <path class="cls-1" d="M251.61,76.76v43.38h-8.79v-43.38h-4.94v-8.24h4.94v-15.86c0-12.74,4.72-18.56,15.27-18.56,1.87,0,4.06.44,6.48,1.1v8.9c-2.42-.77-4.28-1.21-5.82-1.21-5.71,0-7.14,2.42-7.14,11.86v13.77h12.96v8.24h-12.96Z"/>
        <path class="cls-1" d="M291.86,67.43c15.16,0,27.24,11.97,27.24,27.13s-12.08,27.02-27.46,27.02-27.02-11.97-27.02-27.46c0-13.95,11.31-26.69,27.24-26.69ZM291.64,113.56c10.65,0,18.45-7.8,18.45-19s-7.69-19.11-18.34-19.11-18.12,8.24-18.12,18.78c0,11.31,7.47,19.33,18.01,19.33Z"/>
        <path class="cls-1" d="M350.66,67.43c15.16,0,27.24,11.97,27.24,27.13s-12.08,27.02-27.46,27.02-27.02-11.97-27.02-27.46c0-13.95,11.31-26.69,27.24-26.69ZM350.44,113.56c10.65,0,18.45-7.8,18.45-19s-7.69-19.11-18.34-19.11-18.12,8.24-18.12,18.78c0,11.31,7.47,19.33,18.01,19.33Z"/>
        <path class="cls-1" d="M392.42,76.76v22.52c0,10.76,2.97,14.28,10.87,14.28l-1.87,8.02c-10.21,0-17.9-5.27-17.9-20.76v-24.05h-5.38v-8.24h5.38v-15.56h8.9v15.56h10.87v8.24h-10.87Z"/>
        <path class="cls-1" d="M419.38,149.14h-8.9v-80.62h8.9v7.36c4.94-5.71,10.87-8.57,17.79-8.57,14.06,0,24.82,11.53,24.82,27.35s-10.21,26.91-24.6,26.91c-7.14,0-13.07-2.86-18.01-8.57v36.13ZM436.08,75.33c-9.67,0-17.35,7.91-17.35,19.33,0,10.76,7.14,18.89,17.35,18.89s16.91-8.46,16.91-18.56c0-11.31-7.25-19.66-16.91-19.66Z"/>
        <path class="cls-1" d="M488.16,67.32c2.53,0,5.16.77,7.91,2.2l-4.28,8.02c-1.76-1.21-3.4-1.76-5.05-1.76-7.25,0-10.21,5.16-10.21,17.13v27.24h-8.9v-51.62h8.9v5.6c2.44-7.59,11.64-6.81,11.64-6.81Z"/>
        <path class="cls-1" d="M510.08,68.52v51.62h-8.9v-51.62h8.9Z"/>
        <path class="cls-1" d="M517.99,68.52h8.9v6.26c4.06-4.94,9.01-7.47,14.72-7.47s10.54,1.87,13.73,5.71c2.64,3.08,4.06,8.13,4.06,15.05v32.07h-8.9v-30.42c0-5.38-.88-9.01-2.42-11.2-1.65-2.09-4.39-3.18-8.46-3.18-9.01,0-12.74,5.71-12.74,19v25.81h-8.9v-51.62Z"/>
        <path class="cls-1" d="M577.1,76.76v22.52c0,10.76,2.97,14.28,10.87,14.28l-1.87,8.02c-10.21,0-17.9-5.27-17.9-20.76v-24.05h-5.38v-8.24h5.38v-15.56h8.9v15.56h10.87v8.24h-10.87Z"/>
        <path class="cls-1" d="M211.79,85.93h23.28v10h-23.28v-10Z"/>
        <circle class="cls-1" cx="505.57" cy="57.22" r="4.5"/>
      </g>
    </g>
  </g>
</svg>